<svg width="437" height="147" viewBox="0 0 437 147" fill="none" xmlns="http://www.w3.org/2000/svg">
<path d="M22.8693 68H3.28125V17.0909H22.6705C27.9072 17.0909 32.4313 18.1101 36.2429 20.1484C40.071 22.1702 43.0208 25.0869 45.0923 28.8984C47.1804 32.6934 48.2244 37.2424 48.2244 42.5455C48.2244 47.8485 47.1887 52.4058 45.1172 56.2173C43.0457 60.0123 40.1125 62.929 36.3175 64.9673C32.5225 66.9891 28.0398 68 22.8693 68ZM17.1023 56.267H22.3722C24.8911 56.267 27.0372 55.861 28.8104 55.049C30.6001 54.237 31.959 52.8366 32.8871 50.848C33.8317 48.8594 34.304 46.0919 34.304 42.5455C34.304 38.9991 33.8234 36.2315 32.8622 34.2429C31.9176 32.2543 30.5256 30.8539 28.6861 30.0419C26.8632 29.2299 24.6259 28.8239 21.9744 28.8239H17.1023V56.267ZM103.937 42.5455C103.937 48.2131 102.835 52.9941 100.631 56.8885C98.4271 60.7663 95.4525 63.7079 91.7072 65.7131C87.9619 67.7017 83.7858 68.696 79.1788 68.696C74.5386 68.696 70.3459 67.6934 66.6007 65.6882C62.872 63.6664 59.9056 60.7166 57.7015 56.8388C55.514 52.9444 54.4203 48.1799 54.4203 42.5455C54.4203 36.8778 55.514 32.1051 57.7015 28.2273C59.9056 24.3329 62.872 21.3913 66.6007 19.4027C70.3459 17.3975 74.5386 16.3949 79.1788 16.3949C83.7858 16.3949 87.9619 17.3975 91.7072 19.4027C95.4525 21.3913 98.4271 24.3329 100.631 28.2273C102.835 32.1051 103.937 36.8778 103.937 42.5455ZM89.7186 42.5455C89.7186 39.4962 89.3126 36.9276 88.5005 34.8395C87.7051 32.7348 86.5202 31.1439 84.9458 30.0668C83.3881 28.973 81.4657 28.4261 79.1788 28.4261C76.8919 28.4261 74.9612 28.973 73.3869 30.0668C71.8291 31.1439 70.6442 32.7348 69.8322 34.8395C69.0368 36.9276 68.639 39.4962 68.639 42.5455C68.639 45.5947 69.0368 48.1716 69.8322 50.2763C70.6442 52.3643 71.8291 53.9553 73.3869 55.049C74.9612 56.1262 76.8919 56.6648 79.1788 56.6648C81.4657 56.6648 83.3881 56.1262 84.9458 55.049C86.5202 53.9553 87.7051 52.3643 88.5005 50.2763C89.3126 48.1716 89.7186 45.5947 89.7186 42.5455ZM106.547 28.2273V17.0909H150.795V28.2273H135.482V68H121.86V28.2273H106.547ZM154.604 28.2273V17.0909H198.851V28.2273H183.539V68H169.917V28.2273H154.604ZM204.053 68V17.0909H240.743V28.2273H217.874V36.9773H238.854V48.1136H217.874V56.8636H240.644V68H204.053ZM267.186 68H247.598V17.0909H266.987C272.224 17.0909 276.748 18.1101 280.559 20.1484C284.387 22.1702 287.337 25.0869 289.409 28.8984C291.497 32.6934 292.541 37.2424 292.541 42.5455C292.541 47.8485 291.505 52.4058 289.434 56.2173C287.362 60.0123 284.429 62.929 280.634 64.9673C276.839 66.9891 272.356 68 267.186 68ZM261.419 56.267H266.689C269.208 56.267 271.354 55.861 273.127 55.049C274.917 54.237 276.275 52.8366 277.203 50.848C278.148 48.8594 278.62 46.0919 278.62 42.5455C278.62 38.9991 278.14 36.2315 277.179 34.2429C276.234 32.2543 274.842 30.8539 273.002 30.0419C271.18 29.2299 268.942 28.8239 266.291 28.8239H261.419V56.267Z" fill="white"/>
<path d="M304.342 130H289.427L306.231 79.0909H325.123L341.927 130H327.012L315.876 93.1108H315.478L304.342 130ZM301.558 109.915H329.597V120.256H301.558V109.915ZM346.83 130V79.0909H368.904C372.782 79.0909 376.038 79.6129 378.673 80.657C381.325 81.701 383.322 83.1759 384.664 85.0817C386.023 86.9875 386.702 89.233 386.702 91.8182C386.702 93.6908 386.288 95.3977 385.459 96.9389C384.647 98.4801 383.504 99.7727 382.029 100.817C380.554 101.844 378.831 102.557 376.858 102.955V103.452C379.046 103.535 381.035 104.09 382.824 105.117C384.614 106.128 386.039 107.528 387.1 109.318C388.161 111.091 388.691 113.179 388.691 115.582C388.691 118.366 387.962 120.844 386.503 123.015C385.062 125.186 383.007 126.893 380.339 128.136C377.671 129.379 374.489 130 370.793 130H346.83ZM360.651 118.963H367.114C369.434 118.963 371.174 118.532 372.334 117.67C373.494 116.792 374.074 115.5 374.074 113.793C374.074 112.599 373.801 111.589 373.254 110.76C372.707 109.931 371.928 109.302 370.917 108.871C369.923 108.44 368.722 108.224 367.313 108.224H360.651V118.963ZM360.651 99.6733H366.319C367.528 99.6733 368.597 99.4827 369.525 99.1016C370.453 98.7204 371.174 98.1735 371.688 97.4609C372.218 96.7318 372.483 95.8452 372.483 94.8011C372.483 93.2268 371.92 92.0253 370.793 91.1967C369.666 90.3516 368.241 89.929 366.518 89.929H360.651V99.6733ZM421.031 95C420.898 93.3428 420.277 92.0502 419.167 91.1222C418.073 90.1941 416.407 89.7301 414.17 89.7301C412.745 89.7301 411.577 89.9041 410.665 90.2521C409.77 90.5836 409.108 91.0393 408.677 91.6193C408.246 92.1993 408.022 92.8622 408.006 93.608C407.972 94.2211 408.08 94.7763 408.329 95.2734C408.594 95.754 409.008 96.1932 409.572 96.5909C410.135 96.9721 410.856 97.3201 411.734 97.6349C412.613 97.9498 413.657 98.2315 414.866 98.4801L419.042 99.375C421.86 99.9716 424.271 100.759 426.276 101.737C428.281 102.714 429.922 103.866 431.198 105.192C432.474 106.501 433.41 107.976 434.007 109.616C434.62 111.257 434.935 113.047 434.952 114.986C434.935 118.333 434.098 121.167 432.441 123.487C430.784 125.807 428.414 127.572 425.331 128.782C422.266 129.992 418.578 130.597 414.27 130.597C409.845 130.597 405.984 129.942 402.686 128.633C399.405 127.324 396.853 125.31 395.03 122.592C393.223 119.858 392.312 116.361 392.295 112.102H405.42C405.503 113.66 405.893 114.969 406.589 116.03C407.285 117.09 408.262 117.894 409.522 118.441C410.798 118.988 412.314 119.261 414.071 119.261C415.546 119.261 416.78 119.079 417.775 118.714C418.769 118.35 419.523 117.844 420.037 117.198C420.55 116.552 420.816 115.814 420.832 114.986C420.816 114.207 420.559 113.527 420.062 112.947C419.581 112.351 418.786 111.821 417.675 111.357C416.565 110.876 415.065 110.429 413.176 110.014L408.105 108.92C403.597 107.943 400.043 106.31 397.441 104.023C394.856 101.72 393.571 98.5795 393.588 94.6023C393.571 91.3707 394.433 88.5452 396.173 86.1257C397.93 83.6896 400.358 81.7921 403.456 80.4332C406.572 79.0743 410.143 78.3949 414.17 78.3949C418.28 78.3949 421.835 79.0826 424.834 80.4581C427.834 81.8336 430.146 83.7725 431.77 86.2749C433.41 88.7607 434.239 91.669 434.256 95H421.031Z" fill="white"/>
<rect x="249" y="79" width="14" height="9" fill="white"/>
<rect x="249" y="92" width="14" height="10" fill="white"/>
<rect x="249" y="106" width="14" height="9" fill="white"/>
<rect x="249" y="119" width="35" height="11" fill="white"/>
</svg>
